<svg width="33" height="32" viewBox="0 0 33 32" fill="none" xmlns="http://www.w3.org/2000/svg">
<rect x="0.5" width="32" height="32" rx="16" fill="#343434"/>
<path fill-rule="evenodd" clip-rule="evenodd" d="M19.1467 9.64665C19.2405 9.55302 19.3675 9.50043 19.5 9.50043C19.6325 9.50043 19.7596 9.55302 19.8534 9.64665L22.8534 12.6467C22.947 12.7404 22.9996 12.8675 22.9996 13C22.9996 13.1325 22.947 13.2596 22.8534 13.3533L19.8534 16.3533C19.8076 16.4024 19.7524 16.4418 19.6911 16.4692C19.6297 16.4965 19.5635 16.5112 19.4964 16.5124C19.4293 16.5136 19.3626 16.5012 19.3003 16.4761C19.2381 16.4509 19.1815 16.4135 19.134 16.366C19.0865 16.3185 19.0491 16.262 19.024 16.1997C18.9988 16.1375 18.9865 16.0708 18.9877 16.0036C18.9888 15.9365 19.0035 15.8703 19.0309 15.809C19.0582 15.7476 19.0976 15.6924 19.1467 15.6467L21.2934 13.5H13.5C13.3674 13.5 13.2403 13.4473 13.1465 13.3535C13.0527 13.2598 13 13.1326 13 13C13 12.8674 13.0527 12.7402 13.1465 12.6464C13.2403 12.5527 13.3674 12.5 13.5 12.5H21.2934L19.1467 10.3533C19.0531 10.2596 19.0005 10.1325 19.0005 9.99999C19.0005 9.86749 19.0531 9.7404 19.1467 9.64665ZM13.8534 15.6467C13.947 15.7404 13.9996 15.8675 13.9996 16C13.9996 16.1325 13.947 16.2596 13.8534 16.3533L11.7067 18.5H19.5C19.6327 18.5 19.7598 18.5527 19.8536 18.6464C19.9474 18.7402 20 18.8674 20 19C20 19.1326 19.9474 19.2598 19.8536 19.3535C19.7598 19.4473 19.6327 19.5 19.5 19.5H11.7067L13.8534 21.6467C13.9025 21.6924 13.9419 21.7476 13.9692 21.809C13.9966 21.8703 14.0113 21.9365 14.0124 22.0036C14.0136 22.0708 14.0013 22.1375 13.9761 22.1997C13.951 22.262 13.9136 22.3185 13.8661 22.366C13.8186 22.4135 13.762 22.4509 13.6998 22.4761C13.6375 22.5012 13.5708 22.5136 13.5037 22.5124C13.4366 22.5112 13.3704 22.4965 13.309 22.4692C13.2477 22.4418 13.1925 22.4024 13.1467 22.3533L10.1467 19.3533C10.0531 19.2596 10.0005 19.1325 10.0005 19C10.0005 18.8675 10.0531 18.7404 10.1467 18.6467L13.1467 15.6467C13.2405 15.553 13.3675 15.5004 13.5 15.5004C13.6325 15.5004 13.7596 15.553 13.8534 15.6467Z" fill="#fff"/>
</svg>
